<svg width="40" height="40" viewBox="0 0 40 40" fill="none" xmlns="http://www.w3.org/2000/svg">
<mask id="mask0_635_24" style="mask-type:alpha" maskUnits="userSpaceOnUse" x="0" y="0" width="40" height="40">
<rect width="40" height="40" fill="#D9D9D9"/>
</mask>
<g mask="url(#mask0_635_24)">
<path d="M6.11125 33.3334C5.36125 33.3334 4.71079 33.058 4.15987 32.507C3.60895 31.9561 3.3335 31.3057 3.3335 30.5557V9.4445C3.3335 8.6945 3.60895 8.04404 4.15987 7.49312C4.71079 6.94221 5.36125 6.66675 6.11125 6.66675H17.2502L20.028 9.4445H33.8891C34.6391 9.4445 35.2895 9.71997 35.8405 10.2709C36.3914 10.8218 36.6668 11.4723 36.6668 12.2223V19.4445C36.2316 19.2223 35.7802 19.0719 35.3127 18.9932C34.8451 18.9144 34.3706 18.889 33.8891 18.9167V12.2223H18.8752L16.0974 9.4445H6.11125V30.5557H20.6113L20.5557 30.6112V33.3334H6.11125ZM23.3335 36.6667V31.5417L32.5418 22.3751C32.7918 22.1251 33.0696 21.9445 33.3752 21.8334C33.6807 21.7223 33.9863 21.6667 34.2918 21.6667C34.6252 21.6667 34.9446 21.7292 35.2502 21.8542C35.5557 21.9792 35.8335 22.1667 36.0835 22.4167L37.6252 23.9584C37.8659 24.2084 38.0442 24.4862 38.1599 24.7917C38.2756 25.0973 38.3335 25.4029 38.3335 25.7084C38.3335 26.014 38.2733 26.3265 38.153 26.6459C38.0326 26.9654 37.8482 27.2501 37.5999 27.5001L28.4585 36.6667H23.3335ZM25.8335 34.1667H27.4168L32.4585 29.0834L31.7085 28.2917L30.9168 27.5417L25.8335 32.5834V34.1667ZM31.7085 28.2917L30.9168 27.5417L32.4585 29.0834L31.7085 28.2917Z" fill="#1C1B1F"/>
</g>
</svg>
