<svg width="38" height="38" viewBox="0 0 38 38" fill="none" xmlns="http://www.w3.org/2000/svg">
<g clip-path="url(#clip0_1_43)">
<path d="M33.4261 36.961L26.5726 30.109C23.7431 32.193 20.3202 33.3146 16.806 33.309C12.43 33.309 8.23339 31.5706 5.13904 28.4762C2.04469 25.3819 0.30603 21.1851 0.30603 16.809C0.30603 12.4329 2.04469 8.2361 5.13904 5.14175C8.23339 2.0474 12.43 0.308983 16.806 0.308983C21.1821 0.308983 25.3787 2.0474 28.473 5.14175C31.5674 8.2361 33.306 12.4329 33.306 16.809C33.3118 20.3232 32.19 23.7466 30.1058 26.576L36.9594 33.426C37.1917 33.6582 37.3756 33.9338 37.5013 34.2373C37.6271 34.5407 37.6918 34.866 37.6918 35.1945C37.6918 35.523 37.6271 35.8482 37.5013 36.1517C37.3756 36.4551 37.1917 36.7308 36.9594 36.963C36.7273 37.1957 36.4514 37.3802 36.1478 37.506C35.8442 37.6318 35.5184 37.6964 35.1898 37.696C34.8619 37.6958 34.5375 37.6307 34.2347 37.5046C33.932 37.3785 33.6572 37.1937 33.4261 36.961ZM8.67615 8.673C7.60399 9.73825 6.75367 11.0058 6.17517 12.4021C5.59667 13.7984 5.3014 15.2956 5.30603 16.807C5.30174 18.3179 5.59766 19.8146 6.17615 21.2104C6.75464 22.6061 7.60431 23.8731 8.67615 24.938C9.741 26.0099 11.0079 26.8598 12.4037 27.4385C13.7994 28.0172 15.2961 28.313 16.807 28.309C18.3179 28.3129 19.8146 28.0169 21.2103 27.4383C22.606 26.8596 23.8729 26.0098 24.9379 24.938C26.0097 23.8731 26.8594 22.6061 27.4379 21.2104C28.0164 19.8146 28.3123 18.3179 28.308 16.807C28.3126 15.2956 28.0173 13.7984 27.4388 12.4021C26.8603 11.0058 26.01 9.73825 24.9379 8.673C23.8728 7.60161 22.6061 6.75223 21.2103 6.1741C19.8146 5.59596 18.3177 5.30055 16.807 5.30499C15.2963 5.30038 13.7994 5.59574 12.4037 6.17388C11.0079 6.75203 9.74115 7.60147 8.67615 8.673Z" fill="white"/>
</g>
<defs>
<clipPath id="clip0_1_43">
<rect width="37.388" height="37.388" fill="white" transform="translate(0.30603 0.306)"/>
</clipPath>
</defs>
</svg>
