<svg width="40" height="40" viewBox="0 0 40 40" fill="none" xmlns="http://www.w3.org/2000/svg">
<mask id="mask0_636_99" style="mask-type:alpha" maskUnits="userSpaceOnUse" x="0" y="0" width="40" height="40">
<rect width="40" height="40" fill="#D9D9D9"/>
</mask>
<g mask="url(#mask0_636_99)">
<path d="M3.36133 28.7779C4.59588 28.7779 5.64526 29.2208 6.50945 30.1066C7.37365 30.9924 7.80574 32.068 7.80574 33.3334H3.36133V28.7779ZM3.36133 22.1112C6.45655 22.1112 9.0822 23.2061 11.2383 25.3959C13.3944 27.5857 14.4724 30.2316 14.4724 33.3334H11.6947C11.6947 30.9971 10.8868 29.0056 9.27104 27.359C7.65529 25.7123 5.68538 24.889 3.36133 24.889V22.1112ZM3.36133 15.4445C5.81502 15.4445 8.12058 15.9144 10.278 16.8542C12.4354 17.7941 14.3196 19.0742 15.9307 20.6945C17.5419 22.3149 18.8127 24.213 19.7432 26.389C20.6738 28.5649 21.1391 30.8797 21.1391 33.3334H18.3613C18.3613 31.2501 17.9701 29.2894 17.1877 27.4515C16.4053 25.6135 15.3358 24.0117 13.9794 22.6459C12.6229 21.2802 11.0349 20.2015 9.2155 19.4098C7.39605 18.6181 5.44466 18.2223 3.36133 18.2223V15.4445ZM33.9169 33.3334H25.028C25.028 32.8704 25.0118 32.4075 24.9794 31.9445C24.947 31.4816 24.8983 31.0186 24.8335 30.5557H33.9169V19.8889C34.4354 19.6945 34.9215 19.4792 35.3752 19.2431C35.8289 19.007 36.2687 18.7269 36.6947 18.4028V30.5557C36.6947 31.3196 36.4227 31.9735 35.8787 32.5175C35.3347 33.0614 34.6808 33.3334 33.9169 33.3334ZM3.36133 11.5556V9.4445C3.36133 8.68061 3.63331 8.02668 4.17729 7.48271C4.72126 6.93874 5.37519 6.66675 6.13908 6.66675H19.8891C19.741 7.10194 19.6345 7.55101 19.5697 8.01396C19.5049 8.47693 19.4632 8.95378 19.4447 9.4445H6.13908V11.7501C5.67611 11.6853 5.21315 11.6367 4.7502 11.6042C4.28723 11.5718 3.82427 11.5556 3.36133 11.5556ZM30.278 17.7778C28.065 17.7778 26.1692 16.994 24.5905 15.4265C23.0118 13.8589 22.2225 11.9631 22.2225 9.739C22.2225 7.51491 23.0118 5.61351 24.5905 4.03479C26.1692 2.4561 28.065 1.66675 30.278 1.66675C32.4909 1.66675 34.3868 2.45487 35.9655 4.03112C37.5442 5.60737 38.3335 7.51369 38.3335 9.75008C38.3335 11.9711 37.5442 13.8643 35.9655 15.4297C34.3868 16.9951 32.4909 17.7778 30.278 17.7778ZM30.2641 14.5556C30.5141 14.5556 30.7271 14.4723 30.903 14.3056C31.0789 14.139 31.1669 13.926 31.1669 13.6667C31.1669 13.4075 31.078 13.1945 30.9002 13.0278C30.7224 12.8612 30.515 12.7778 30.278 12.7778C30.0187 12.7778 29.8057 12.8612 29.6391 13.0278C29.4724 13.1945 29.3891 13.4075 29.3891 13.6667C29.3891 13.926 29.4724 14.139 29.6391 14.3056C29.8057 14.4723 30.0141 14.5556 30.2641 14.5556ZM29.5002 11.0834H31.028V4.88896H29.5002V11.0834Z" fill="#1C1B1F"/>
</g>
</svg>
