<svg width="40" height="40" viewBox="0 0 40 40" fill="none" xmlns="http://www.w3.org/2000/svg">
<mask id="mask0_635_15" style="mask-type:alpha" maskUnits="userSpaceOnUse" x="0" y="0" width="40" height="40">
<rect width="40" height="40" fill="#D9D9D9"/>
</mask>
<g mask="url(#mask0_635_15)">
<path d="M28.6391 36.6112L28.3335 34.4445C27.7965 34.2686 27.3034 34.0487 26.8543 33.7848C26.4052 33.5209 26.0001 33.2316 25.639 32.9167L23.6668 33.7223L22.139 31.2779L23.8335 29.889C23.7224 29.426 23.6668 28.9214 23.6668 28.3751C23.6668 27.8288 23.7224 27.3241 23.8335 26.8612L22.139 25.4723L23.6668 23.0001L25.639 23.8057C26.0001 23.5094 26.4052 23.2293 26.8543 22.9654C27.3034 22.7015 27.7965 22.4816 28.3335 22.3056L28.6391 20.1112H31.4168L31.7502 22.3056C32.2872 22.4816 32.7802 22.7015 33.2293 22.9654C33.6784 23.2293 34.0835 23.5094 34.4446 23.8057L36.4168 23.0001L37.9446 25.4723L36.2502 26.8612C36.3613 27.3241 36.4168 27.8288 36.4168 28.3751C36.4168 28.9214 36.3613 29.426 36.2502 29.889L37.9446 31.2779L36.4168 33.7223L34.4446 32.9167C34.0835 33.2316 33.6784 33.5209 33.2293 33.7848C32.7802 34.0487 32.2872 34.2686 31.7502 34.4445L31.4168 36.6112H28.6391ZM30.028 32.3057C31.1483 32.3057 32.0858 31.9283 32.8405 31.1737C33.5951 30.4191 33.9724 29.4816 33.9724 28.3612C33.9724 27.2408 33.5951 26.3033 32.8405 25.5487C32.0858 24.7941 31.1483 24.4167 30.028 24.4167C28.9076 24.4167 27.9701 24.7941 27.2154 25.5487C26.4608 26.3033 26.0835 27.2408 26.0835 28.3612C26.0835 29.4816 26.4608 30.4191 27.2154 31.1737C27.9701 31.9283 28.9076 32.3057 30.028 32.3057ZM6.11125 30.5557V9.4445V17.9445V17.2223V30.5557ZM6.11125 33.3334C5.36125 33.3334 4.71079 33.0533 4.15987 32.4931C3.60895 31.933 3.3335 31.2871 3.3335 30.5557V9.4445C3.3335 8.71303 3.60895 8.06721 4.15987 7.50704C4.71079 6.94684 5.36125 6.66675 6.11125 6.66675H17.2502L20.028 9.4445H33.8891C34.6206 9.4445 35.2664 9.7246 35.8265 10.2848C36.3867 10.845 36.6668 11.4908 36.6668 12.2223V19.4307C36.2409 19.1066 35.8011 18.8265 35.3474 18.5904C34.8937 18.3543 34.4076 18.139 33.8891 17.9445V12.2223H18.8752L16.0974 9.4445H6.11125V30.5557H19.153C19.2548 31.0464 19.3821 31.5232 19.5349 31.9862C19.6877 32.4492 19.8798 32.8982 20.1113 33.3334H6.11125Z" fill="#1C1B1F"/>
</g>
</svg>
