<svg width="40" height="40" viewBox="0 0 40 40" fill="none" xmlns="http://www.w3.org/2000/svg">
<mask id="mask0_635_33" style="mask-type:alpha" maskUnits="userSpaceOnUse" x="0" y="0" width="40" height="40">
<rect width="40" height="40" fill="#D9D9D9"/>
</mask>
<g mask="url(#mask0_635_33)">
<path d="M11.6946 29.9999C11.278 29.9999 10.8914 29.817 10.5349 29.4513C10.1784 29.0856 10.0002 28.6944 10.0002 28.2777V24.4443H31.1112V9.99992H35.0002C35.4168 9.99992 35.7988 10.1828 36.146 10.5485C36.4932 10.9143 36.6668 11.3147 36.6668 11.7499V36.6388L30.028 29.9999H11.6946ZM3.3335 28.3333V5.05546C3.3335 4.63879 3.50711 4.2476 3.85433 3.88188C4.20155 3.51613 4.5835 3.33325 5.00016 3.33325H26.639C27.0742 3.33325 27.4654 3.51149 27.8127 3.86796C28.1599 4.22446 28.3335 4.62029 28.3335 5.05546V19.9444C28.3335 20.361 28.1599 20.7522 27.8127 21.118C27.4654 21.4837 27.0742 21.6666 26.639 21.6666H10.0002L3.3335 28.3333ZM25.5557 18.8888V6.111H6.11125V18.8888H25.5557Z" fill="#1C1B1F"/>
</g>
</svg>
