<svg width="40" height="40" viewBox="0 0 40 40" fill="none" xmlns="http://www.w3.org/2000/svg">
<mask id="mask0_635_42" style="mask-type:alpha" maskUnits="userSpaceOnUse" x="0" y="0" width="40" height="40">
<rect width="40" height="40" fill="#D9D9D9"/>
</mask>
<g mask="url(#mask0_635_42)">
<path d="M29.9863 34.8333C30.2363 34.8333 30.4492 34.7499 30.6252 34.5833C30.8011 34.4166 30.889 34.2036 30.889 33.9444C30.889 33.6851 30.8001 33.4721 30.6224 33.3055C30.4446 33.1388 30.2372 33.0555 30.0002 33.0555C29.7409 33.0555 29.528 33.1388 29.3613 33.3055C29.1946 33.4721 29.1113 33.6851 29.1113 33.9444C29.1113 34.2036 29.1946 34.4166 29.3613 34.5833C29.528 34.7499 29.7363 34.8333 29.9863 34.8333ZM29.2224 31.361H30.7502V25.1666H29.2224V31.361ZM6.11125 34.9999C5.36125 34.9999 4.71079 34.7245 4.15987 34.1735C3.60895 33.6226 3.3335 32.9722 3.3335 32.2222V12.7777C3.3335 12.0277 3.60895 11.3772 4.15987 10.8263C4.71079 10.2754 5.36125 9.99992 6.11125 9.99992H13.3335V6.111C13.3335 5.37953 13.609 4.73371 14.1599 4.17354C14.7108 3.61335 15.3612 3.33325 16.1112 3.33325H23.8891C24.6391 3.33325 25.2895 3.61335 25.8405 4.17354C26.3914 4.73371 26.6668 5.37953 26.6668 6.111V9.99992H33.8891C34.6391 9.99992 35.2895 10.2754 35.8405 10.8263C36.3914 11.3772 36.6668 12.0277 36.6668 12.7777V21.4027C36.2409 21.0787 35.8011 20.7893 35.3474 20.5347C34.8937 20.28 34.4076 20.0462 33.8891 19.8333V12.7777H6.11125V32.2222H19.3196C19.4215 32.7129 19.5557 33.1897 19.7224 33.6527C19.8891 34.1157 20.0882 34.5647 20.3196 34.9999H6.11125ZM16.1112 9.99992H23.8891V6.111H16.1112V9.99992ZM30.0002 38.1388C27.7687 38.1388 25.8543 37.3402 24.2571 35.743C22.6599 34.1457 21.8613 32.2314 21.8613 29.9999C21.8613 27.7684 22.6599 25.8541 24.2571 24.2569C25.8543 22.6597 27.7687 21.861 30.0002 21.861C32.2316 21.861 34.146 22.6597 35.7432 24.2569C37.3404 25.8541 38.139 27.7684 38.139 29.9999C38.139 32.2314 37.3404 34.1457 35.7432 35.743C34.146 37.3402 32.2316 38.1388 30.0002 38.1388Z" fill="#1C1B1F"/>
</g>
</svg>
